HIERARCHY
ROOT Hips
{
  OFFSET 0.0000 0.0000 0.0000
  CHANNELS 6 Xposition Yposition Zposition Zrotation Xrotation Yrotation
  JOINT LeftHip
  {
    OFFSET 5.5000 -0.0000 -0.0000
    CHANNELS 3 Zrotation Xrotation Yrotation
    JOINT LeftKnee
    {
      OFFSET -0.0000 -17.5000 0.0000
      CHANNELS 3 Zrotation Xrotation Yrotation
      JOINT LeftAnkle
      {
        OFFSET 0.0000 -17.0000 -0.0000
        CHANNELS 3 Zrotation Xrotation Yrotation
        End Site
        {
            OFFSET 0.0000 -4.7000 -2.0000
        }
      }
    }
  }
  JOINT RightHip
  {
    OFFSET -5.5000 0.0000 0.0000
    CHANNELS 3 Zrotation Xrotation Yrotation
    JOINT RightKnee
    {
      OFFSET 0.0000 -17.5000 -0.0000
      CHANNELS 3 Zrotation Xrotation Yrotation
      JOINT RightAnkle
      {
        OFFSET 0.0000 -17.0000 0.0000
        CHANNELS 3 Zrotation Xrotation Yrotation
        End Site
        {
            OFFSET -0.0000 -4.7000 -2.0000
        }
      }
    }
  }
  JOINT Chest
  {
    OFFSET -0.0000 3.0000 -1.0000
    CHANNELS 3 Zrotation Xrotation Yrotation
    JOINT LeftCollar
    {
      OFFSET 0.0000 18.0000 1.0000
      CHANNELS 3 Zrotation Xrotation Yrotation
      JOINT LeftShoulder
      {
        OFFSET 6.5000 -0.0000 0.0000
        CHANNELS 3 Zrotation Xrotation Yrotation
        JOINT LeftElbow
        {
          OFFSET 0.0000 -11.0000 0.0000
          CHANNELS 3 Zrotation Xrotation Yrotation
          JOINT LeftWrist
          {
            OFFSET 0.0000 -10.5000 0.0000
            CHANNELS 3 Zrotation Xrotation Yrotation
            End Site
            {
                OFFSET 0.0000 -6.0000 -0.0000
            }
          }
        }
      }
    }
    JOINT RightCollar
    {
      OFFSET 0.0000 18.0000 1.0000
      CHANNELS 3 Zrotation Xrotation Yrotation
      JOINT RightShoulder
      {
        OFFSET -6.5000 -0.0000 0.0000
        CHANNELS 3 Zrotation Xrotation Yrotation
        JOINT RightElbow
        {
          OFFSET 0.0000 -11.0000 0.0000
          CHANNELS 3 Zrotation Xrotation Yrotation
          JOINT RightWrist
          {
            OFFSET 0.0000 -10.5000 -0.0000
            CHANNELS 3 Zrotation Xrotation Yrotation
            End Site
            {
                OFFSET 0.0000 -6.0000 0.0000
            }
          }
        }
      }
    }
    JOINT Neck
    {
      OFFSET 0.0000 18.0000 1.0000
      CHANNELS 3 Zrotation Xrotation Yrotation
      JOINT Head
      {
        OFFSET -0.0000 3.0000 0.0000
        CHANNELS 3 Zrotation Xrotation Yrotation
        End Site
        {
            OFFSET 0.0000 7.0000 0.0000
        }
      }
    }
  }
}
MOTION
Frames:	15
Frame Time:	0.033333
-0.4694 40.6785 0.2155 1.52 4.41 9.55 -1.80 -3.28 -0.56 -0.00 10.47 -0.19 -3.11 -8.52 -7.80 5.00 -3.36 3.25 -0.00 9.87 0.30 -5.53 -7.88 -11.49 0.94 -0.64 0.50 0.00 0.00 0.00 10.52 -7.06 -3.50 0.00 -9.26 0.92 -15.56 0.09 -21.46 0.00 0.00 0.00 -9.91 -3.19 0.85 -0.00 -10.97 -1.03 5.97 -1.28 1.86 0.00 0.00 0.00 -2.90 -9.06 -10.90 
-0.5493 40.6897 0.2746 -0.04 -0.05 1.36 -2.47 -3.13 -0.42 -0.00 13.59 0.16 -0.28 -7.28 1.33 4.29 -2.81 0.22 -0.00 12.65 -0.09 -2.19 -6.99 -0.19 -0.39 0.20 -0.91 0.00 0.00 0.00 10.10 -4.65 -3.46 -0.00 -9.50 0.90 -10.09 1.42 -13.79 0.00 0.00 0.00 -10.02 -5.44 2.96 0.00 -9.31 -0.90 11.38 2.02 8.23 0.00 0.00 0.00 1.46 -5.78 -1.83 
-0.6167 40.6831 0.3165 -0.02 -0.08 1.34 -2.38 -3.10 -0.44 0.00 13.71 0.18 -0.40 -7.41 1.32 4.39 -2.75 0.22 -0.00 12.72 -0.09 -2.30 -7.09 -0.19 -0.48 0.21 -0.97 0.00 0.00 0.00 10.10 -4.68 -3.41 0.00 -9.50 0.91 -10.16 1.39 -14.01 0.00 0.00 0.00 -10.00 -5.48 2.99 -0.00 -9.32 -0.89 11.38 2.05 8.33 0.00 0.00 0.00 1.55 -5.78 -1.90 
-0.5972 40.6817 0.3170 -0.02 -0.09 1.33 -2.41 -3.10 -0.43 -0.00 13.76 0.19 -0.37 -7.44 1.32 4.36 -2.76 0.23 0.00 12.77 -0.09 -2.27 -7.11 -0.19 -0.51 0.22 -0.98 0.00 0.00 0.00 10.15 -4.68 -3.38 0.00 -9.49 0.91 -10.25 1.35 -14.16 0.00 0.00 0.00 -9.96 -5.50 3.03 -0.00 -9.31 -0.89 11.33 2.05 8.37 0.00 0.00 0.00 1.62 -5.77 -1.91 
-0.5730 40.6813 0.3183 -0.03 -0.10 1.33 -2.44 -3.10 -0.42 -0.00 13.78 0.19 -0.33 -7.45 1.33 4.33 -2.77 0.24 -0.00 12.80 -0.09 -2.22 -7.13 -0.19 -0.52 0.23 -0.98 0.00 0.00 0.00 10.18 -4.69 -3.36 -0.00 -9.48 0.91 -10.32 1.31 -14.25 0.00 0.00 0.00 -9.93 -5.51 3.04 -0.00 -9.31 -0.89 11.29 2.04 8.40 0.00 0.00 0.00 1.65 -5.78 -1.92 
-0.5501 40.6812 0.3197 -0.03 -0.11 1.33 -2.47 -3.09 -0.42 0.00 13.79 0.19 -0.30 -7.46 1.33 4.29 -2.77 0.24 -0.00 12.82 -0.09 -2.18 -7.15 -0.18 -0.53 0.24 -0.98 0.00 0.00 0.00 10.19 -4.69 -3.36 0.00 -9.48 0.90 -10.29 1.29 -14.29 0.00 0.00 0.00 -9.91 -5.51 3.04 -0.00 -9.30 -0.89 11.27 2.04 8.42 0.00 0.00 0.00 1.67 -5.78 -1.93 
-0.5322 40.6811 0.3208 -0.03 -0.11 1.32 -2.50 -3.09 -0.41 0.00 13.79 0.19 -0.27 -7.46 1.33 4.27 -2.77 0.25 0.00 12.83 -0.09 -2.15 -7.16 -0.18 -0.53 0.24 -0.97 0.00 0.00 0.00 10.20 -4.69 -3.36 0.00 -9.48 0.90 -10.27 1.28 -14.32 0.00 0.00 0.00 -9.91 -5.51 3.04 -0.00 -9.30 -0.89 11.26 2.03 8.43 0.00 0.00 0.00 1.67 -5.78 -1.93 
-0.5312 40.6841 0.2738 -0.03 -0.11 1.32 -2.50 -3.16 -0.40 0.00 13.77 0.19 -0.27 -7.37 1.33 4.26 -2.85 0.25 -0.00 12.84 -0.09 -2.15 -7.09 -0.17 -0.53 0.24 -0.97 0.00 0.00 0.00 10.20 -4.69 -3.36 0.00 -9.48 0.90 -10.26 1.28 -14.33 0.00 0.00 0.00 -9.90 -5.51 3.03 -0.00 -9.30 -0.89 11.26 2.03 8.44 0.00 0.00 0.00 1.67 -5.78 -1.94 
-0.5265 40.6866 0.2361 -0.04 -0.11 1.31 -2.51 -3.23 -0.41 0.00 13.78 0.19 -0.26 -7.32 1.35 4.25 -2.91 0.23 -0.00 12.82 -0.10 -2.14 -7.02 -0.14 -0.52 0.25 -1.08 0.00 0.00 0.00 10.19 -4.71 -3.43 0.00 -9.48 0.90 -10.23 1.26 -14.24 0.00 0.00 0.00 -9.91 -5.50 2.97 -0.00 -9.30 -0.89 11.27 2.02 8.55 0.00 0.00 0.00 1.67 -5.78 -2.01 
-0.5205 40.6863 0.2260 -0.04 -0.10 1.28 -2.52 -3.27 -0.41 -0.00 13.82 0.19 -0.26 -7.32 1.38 4.25 -2.95 0.22 -0.00 12.85 -0.10 -2.12 -7.02 -0.10 -0.52 0.20 -1.12 0.00 0.00 0.00 10.20 -4.77 -3.40 0.00 -9.49 0.91 -10.23 1.34 -14.26 0.00 0.00 0.00 -9.91 -5.57 2.97 -0.00 -9.31 -0.89 11.28 2.10 8.53 0.00 0.00 0.00 1.76 -5.87 -1.98 
-0.5589 40.6813 0.2563 -0.05 -0.08 1.25 -2.45 -3.29 -0.44 0.00 13.94 0.20 -0.33 -7.44 1.42 4.31 -2.94 0.20 -0.00 12.89 -0.11 -2.19 -7.09 -0.05 -0.53 0.18 -1.15 0.00 0.00 0.00 10.19 -4.77 -3.39 0.00 -9.48 0.91 -10.28 1.31 -14.28 0.00 0.00 0.00 -9.80 -5.70 2.99 -0.00 -9.36 -0.89 11.37 2.18 8.52 0.00 0.00 0.00 1.80 -5.86 -1.96 
-0.6370 40.6673 0.2466 -0.06 -0.07 1.19 -2.32 -3.55 -0.46 -0.00 14.43 0.26 -0.47 -7.68 1.41 4.45 -3.11 0.15 0.00 13.16 -0.16 -2.32 -7.21 0.08 -0.63 0.38 -1.69 0.00 0.00 0.00 10.31 -4.56 -3.50 -0.00 -9.74 0.98 -10.26 1.25 -13.93 0.00 0.00 0.00 -9.71 -5.96 2.69 -0.00 -9.54 -0.94 12.13 2.43 9.01 0.00 0.00 0.00 1.92 -5.62 -2.29 
-0.6578 40.6428 0.1522 -0.18 -0.10 1.11 -2.17 -4.21 -0.47 -0.00 15.52 0.41 -0.53 -8.10 1.32 4.59 -3.51 0.10 -0.00 13.68 -0.24 -2.34 -7.31 0.28 -0.83 0.81 -2.81 0.00 0.00 0.00 10.86 -4.11 -3.23 0.00 -10.10 1.27 -10.24 1.14 -13.83 0.00 0.00 0.00 -9.39 -6.08 2.21 -0.00 -10.44 -1.04 13.21 2.99 9.69 0.00 0.00 0.00 2.15 -4.88 -3.14 
-0.7852 40.5931 0.0435 -0.44 -0.21 0.86 -1.74 -5.15 -0.59 0.00 17.35 0.62 -0.79 -8.90 1.43 5.02 -4.02 -0.09 0.00 14.53 -0.44 -2.52 -7.55 0.88 -1.28 1.58 -4.49 0.00 0.00 0.00 11.60 -3.74 -3.03 0.00 -10.48 1.40 -9.98 1.07 -13.54 0.00 0.00 0.00 -9.34 -6.37 1.77 0.00 -13.16 -1.20 14.93 4.29 10.01 0.00 0.00 0.00 2.37 -4.00 -4.70 
-1.2043 40.5159 -0.1687 -0.76 -0.49 0.13 -0.81 -6.26 -0.86 -0.00 19.68 0.88 -1.57 -9.86 1.98 5.94 -4.71 -0.60 0.00 15.67 -0.80 -3.18 -7.73 2.31 -1.81 2.74 -6.53 0.00 0.00 0.00 12.55 -3.18 -3.02 -0.00 -10.67 1.36 -9.68 0.81 -13.01 0.00 0.00 0.00 -9.70 -6.41 1.40 0.00 -17.96 -1.49 16.85 6.09 10.21 0.00 0.00 0.00 3.09 -3.11 -6.87 
